<svg xmlns="http://www.w3.org/2000/svg" width="50" height="50" viewBox="0 0 50 50">
  <defs>
    <style>
      .note-line { stroke: #ff9999; stroke-width: 2.5; fill: none; stroke-linecap: round; }
      .note-circle { fill: #ff9999; }
      .list-line { stroke: #8a4a3e; stroke-width: 2.2; fill: none; stroke-linecap: round; }
      .heart { fill: #8a4a3e; }
    </style>
  </defs>

  <!-- Líneas de lista con curvas suaves -->
  <path class="list-line" d="M 30 30 Q 35 30.2 40 30.5 Q 42 30.6 43 31"/>
  <path class="list-line" d="M 30 36 Q 35 36.3 40 36.5 Q 42 36.7 43.5 37"/>

  <!-- Corazón más redondeado y suave -->
  <path class="heart" d="M 38 10
    C 37 9 35.5 8.5 34.5 9.5
    C 34 10 34 10.5 34 11
    C 34 10.5 34 10 33.5 9.5
    C 32.5 8.5 31 9 30 10
    C 29 11 29 12.5 30 13.5
    L 34 17.5
    L 38 13.5
    C 39 12.5 39 11 38 10 Z"/>

  <!-- Nota musical con curvas más orgánicas -->
  <g>
    <!-- Línea de la nota con curva suave -->
    <path class="note-line" d="M 19.5 8
      Q 19 10 19 15
      Q 19 25 19 32"
      stroke-width="2.8"/>

    <!-- Curva decorativa superior -->
    <path class="note-line" d="M 19.5 8
      Q 22 7 24 8
      Q 25 8.5 25 9.5
      Q 25 10.5 24 11
      Q 22.5 11.5 21 11"
      stroke-width="2"/>

    <!-- Círculo base de la nota (más orgánico) -->
    <ellipse class="note-circle" cx="14" cy="36" rx="6.5" ry="5.8" transform="rotate(-15 14 36)"/>

    <!-- Sombra/profundidad del círculo -->
    <ellipse cx="14.5" cy="35.5" rx="4" ry="3.2" transform="rotate(-15 14.5 35.5)"
      fill="#ff7777" opacity="0.4"/>
  </g>

  <!-- Detalles decorativos cursivos -->
  <path class="list-line" d="M 29 32 Q 28 33 28.5 34" stroke-width="1.5" opacity="0.6"/>
  <path class="list-line" d="M 29 38 Q 28 39 28.5 40" stroke-width="1.5" opacity="0.6"/>
</svg>
